<svg width="370" height="202" viewBox="0 0 370 202" fill="none" xmlns="http://www.w3.org/2000/svg">
<path d="M41.1769 104.859L5.47749 114.635L3.12451 115.279L4.21779 117.46L7.23339 123.476L7.67174 124.35L8.63111 124.541L21.5343 127.108L22.4176 161.444L6.87285 165.7L4.94387 166.229L5.47209 168.158L6.30862 171.212L6.65148 172.464L7.93465 172.661L31.6432 176.294L31.7996 176.318L31.9577 176.317L51.3567 176.205L51.5201 176.204L51.6813 176.176L89.8348 169.669L90.082 170.28L89.1964 170.523L88.265 170.778L87.8855 171.666L83.3823 182.204L83.1082 182.845L83.2924 183.518L85.7323 192.428L85.9861 193.355L86.8687 193.736L99.2822 199.094L99.9263 199.372L100.603 199.186L110.022 196.607L110.865 196.376L111.268 195.601L115.3 187.85L135.434 184.1L146.72 191.344L147.382 191.769L148.156 191.63L159.89 189.511L161.133 189.286L161.465 188.068L164.601 176.536L164.768 175.922L164.55 175.325L160.185 163.384L159.919 162.655L159.23 162.296L151.389 158.218L151.368 158.142L175.05 156.86L175.2 156.852L175.347 156.822L261.073 139.077L274.982 139.835L275.679 139.873L276.248 139.469L292.882 127.665L324.922 120.244L326.047 119.983L326.384 118.879L327.793 114.26L357.532 106.116L357.914 106.011L358.227 105.769L365.907 99.8354L366.605 99.2955L366.677 98.4156L367.18 92.2574L367.292 90.8856L366.051 90.2909L356.601 85.7634L356.272 85.6057L355.908 85.5744L329.284 83.287L329.131 83.2738L328.978 83.2843L307.047 84.7719L304.391 49.5385L354.018 27.1445L354.856 26.7668L355.115 25.8858L358.09 15.7665L358.504 14.3613L357.289 13.5433L346.887 6.53981L346.472 6.26019L345.974 6.20919L311.061 2.63395L310.771 2.60425L310.485 2.65858L290.974 6.35944L290.747 6.40247L290.536 6.4961L133.999 75.9102L130.998 71.0743L130.474 70.2298L129.485 70.1375L110.107 68.3287L107.811 68.1144L107.923 70.4172L108.427 80.7613L92.2526 83.1703L90.9087 78.2629L90.7488 77.6788L90.2918 77.2816L86.7004 74.1601L85.9361 73.4959L84.9483 73.7187L56.5972 80.114L55.9577 80.2582L55.5277 80.7529L52.8035 83.8872L48.7728 84.991L30.1599 75.8313L29.4797 75.4966L28.7485 75.6968L18.0566 78.6247L16.1277 79.1529L16.6559 81.0819L18.8169 88.9735L19.0621 89.8691L19.9045 90.2597L37.5058 98.4217L41.1769 104.859Z" stroke="white" stroke-width="4"/>
</svg>
